<?xml version="1.0" standalone="no"?><!DOCTYPE svg PUBLIC "-//W3C//DTD SVG 1.1//EN" "http://www.w3.org/Graphics/SVG/1.1/DTD/svg11.dtd"><svg t="1722161291211" class="icon" viewBox="0 0 1024 1024" version="1.1" xmlns="http://www.w3.org/2000/svg" p-id="5393" xmlns:xlink="http://www.w3.org/1999/xlink" width="200" height="200"><path d="M705.163636 852.712727h-13.498181v-35.374545a36.770909 36.770909 0 0 0-38.632728-34.443637H121.949091a36.770909 36.770909 0 0 0-38.632727 34.443637v35.374545H69.818182a46.545455 46.545455 0 0 0-46.545455 46.545455V977.454545a46.545455 46.545455 0 0 0 46.545455 46.545455h635.345454a46.545455 46.545455 0 0 0 46.545455-46.545455v-79.127272a46.545455 46.545455 0 0 0-46.545455-45.614546zM814.545455 263.447273a34.443636 34.443636 0 0 0 8.843636-60.043637L556.218182 6.981818a35.84 35.84 0 0 0-49.338182 6.981818 34.443636 34.443636 0 0 0-6.516364 16.756364zM167.098182 465.454545a35.374545 35.374545 0 0 0-13.498182 10.24 34.443636 34.443636 0 0 0 6.981818 46.545455l264.843637 196.421818a35.84 35.84 0 0 0 49.338181-6.981818 33.512727 33.512727 0 0 0 6.981819-13.498182zM982.109091 651.636364l-301.614546-223.418182 96.349091-126.138182a43.752727 43.752727 0 0 0 8.378182-19.083636l-286.254545-214.574546a46.545455 46.545455 0 0 0-17.221818 13.498182L385.396364 208.058182l-10.705455-7.912727a46.545455 46.545455 0 0 0-64.698182 8.843636L289.978182 232.727273a46.545455 46.545455 0 0 0 9.309091 63.767272l10.705454 7.912728L209.454545 437.061818a43.287273 43.287273 0 0 0-7.447272 15.825455l290.909091 213.643636a46.545455 46.545455 0 0 0 12.101818-10.705454l99.607273-130.327273 303.010909 223.418182a46.545455 46.545455 0 0 0 64.698181-8.843637l19.549091-25.6A46.545455 46.545455 0 0 0 982.109091 651.636364z" fill="#FE9508" p-id="5394"></path></svg>