<?xml version="1.0" standalone="no"?><!DOCTYPE svg PUBLIC "-//W3C//DTD SVG 1.1//EN" "http://www.w3.org/Graphics/SVG/1.1/DTD/svg11.dtd"><svg t="1722161294966" class="icon" viewBox="0 0 1024 1024" version="1.1" xmlns="http://www.w3.org/2000/svg" p-id="5551" xmlns:xlink="http://www.w3.org/1999/xlink" width="200" height="200"><path d="M511.780571 57.856c61.44 0 120.905143 11.995429 176.786286 35.766857 54.125714 22.820571 102.765714 55.588571 144.457143 97.353143a452.388571 452.388571 0 0 1 133.12 321.243429c0 61.293714-11.995429 120.905143-35.766857 176.859428a450.340571 450.340571 0 0 1-97.353143 144.384 452.388571 452.388571 0 0 1-321.243429 133.12 450.340571 450.340571 0 0 1-176.859428-35.766857 450.340571 450.340571 0 0 1-144.384-97.28 452.388571 452.388571 0 0 1-133.12-321.243429c0-61.366857 11.995429-120.978286 35.766857-176.859428 22.820571-54.125714 55.588571-102.765714 97.28-144.457143A451.584 451.584 0 0 1 334.994286 93.622857 450.706286 450.706286 0 0 1 511.780571 57.782857z m0-57.051429a511.488 511.488 0 1 0 0 1022.902858 511.488 511.488 0 0 0 0-1022.902858z m-32.548571 598.528H295.862857v-61.659428h183.369143v-67.657143H295.862857v-61.659429h152.649143L361.910857 232.521143H447.634286l55.734857 118.710857c7.094857 14.848 12.068571 28.013714 15.067428 39.277714 3.510857-12.214857 8.557714-25.307429 15.067429-39.277714l56.832-118.710857h85.869714l-87.771428 175.908571h142.336v61.659429h-173.348572v67.584h173.348572v61.659428h-173.348572v231.424h-78.262857V599.332571z" fill="#F99259" p-id="5552"></path></svg>