<?xml version="1.0" standalone="no"?><!DOCTYPE svg PUBLIC "-//W3C//DTD SVG 1.1//EN" "http://www.w3.org/Graphics/SVG/1.1/DTD/svg11.dtd"><svg t="1722161108890" class="icon" viewBox="0 0 1059 1024" version="1.1" xmlns="http://www.w3.org/2000/svg" p-id="1523" xmlns:xlink="http://www.w3.org/1999/xlink" width="206.8359375" height="200"><path d="M934.269783 409.012766c-4.29566-12.130814-17.785962-21.83627-34.103838-24.386316a2359.51577 2359.51577 0 0 0-247.318182-25.492407c74.795962-81.303806 157.101284-159.052029 246.614305-232.227063 9.80601-8.012129 11.893507-19.503421 5.200645-30.085707-6.676774-10.578263-21.152504-18.538104-37.727798-20.617557a2659.624714 2659.624714 0 0 0-456.98901-17.858361c-18.256554 0.852696-34.3693 8.917114-40.94552 20.315896-84.384776 145.943831-153.662343 295.905794-207.671817 447.516839-3.587761 10.083538-0.591257 20.484827 7.754711 27.716658 8.358034 7.231832 20.919219 10.365089 33.524647 8.426412a2179.254928 2179.254928 0 0 1 221.166142-22.660812 2132.835257 2132.835257 0 0 0-91.467787 137.613952 2046.491693 2046.491693 0 0 0-114.438305 14.64466c-11.113209 1.741592-20.834754 7.947775-26.107797 16.627581-5.281087 8.683829-5.514372 18.7915-0.800408 27.242045a3163.483876 3163.483876 0 0 1 112.837487 222.642271 30.849916 30.849916 0 0 0 22.089666 17.327437 31.059068 31.059068 0 0 0 27.048981-7.654158c96.949982-89.581398 208.914663-171.126533 334.554664-240.774139 12.396276-6.869838 18.433528-19.933792 14.684882-32.59553-3.740603-12.653694-16.595404-22.017267-31.823277-23.018783a2041.733485 2041.733485 0 0 0-92.513547-4.030198c101.913319-84.457174 216.444134-161.304435 342.542661-227.746384 12.60945-6.648619 18.208288-18.787478 13.888495-30.926336z" fill="#FF527B" p-id="1524"></path></svg>